<svg xmlns="http://www.w3.org/2000/svg">
  <!-- Generate thousands of circles -->
  <circle cx="10" cy="10" r="5" />
  <circle cx="20" cy="20" r="5" />
  <circle cx="30" cy="30" r="5" />
  <circle cx="40" cy="40" r="5" />
  <circle cx="50" cy="50" r="5" />
  <circle cx="20" cy="20" r="5" />
  <circle cx="10" cy="10" r="5" />
  <circle cx="20" cy="20" r="5" />
  <circle cx="20" cy="20" r="5" />
  <circle cx="20" cy="20" r="5" />
  <circle cx="20" cy="20" r="5" />
  <circle cx="20" cy="20" r="5" />
  <circle cx="10" cy="10" r="5" />
  <circle cx="20" cy="20" r="5" />
  <circle cx="20" cy="20" r="5" />
  <circle cx="20" cy="20" r="5" />
  <circle cx="20" cy="20" r="5" />
  <circle cx="20" cy="20" r="5" />
  <circle cx="10" cy="10" r="5" />
  <circle cx="20" cy="20" r="5" />
  <circle cx="20" cy="20" r="5" />
  <circle cx="20" cy="20" r="5" />
  <circle cx="20" cy="20" r="5" />
  <circle cx="20" cy="20" r="5" />
  <!-- Repeat... -->
</svg>
