<svg xmlns="http://www.w3.org/2000/svg">
  <!-- Generate thousands of circles -->
  <circle cx="10" cy="10" r="5" />
  <circle cx="20" cy="20" r="5" />
  <circle cx="20" cy="20" r="5" />
  <circle cx="20" cy="20" r="5" />
  <circle cx="20" cy="20" r="5" />
  <circle cx="20" cy="20" r="5" />
  <circle cx="10" cy="10" r="5" />
  <circle cx="20" cy="20" r="5" />
  <circle cx="20" cy="20" r="5" />
  <circle cx="20" cy="20" r="5" />
  <circle cx="20" cy="20" r="5" />
  <circle cx="20" cy="20" r="5" />
  <circle cx="10" cy="10" r="5" />
  <circle cx="20" cy="20" r="5" />
  <circle cx="20" cy="20" r="5" />
  <circle cx="20" cy="20" r="5" />
  <circle cx="20" cy="20" r="5" />
  <circle cx="20" cy="20" r="5" />
  <circle cx="10" cy="10" r="5" />
  <circle cx="20" cy="20" r="5" />
  <circle cx="20" cy="20" r="5" />
  <circle cx="20" cy="20" r="5" />
  <circle cx="20" cy="20" r="5" />
  <circle cx="20" cy="20" r="5" />
  <!-- Repeat... -->
</svg>
